<svg viewBox="0 0 512 512" xmlns="http://www.w3.org/2000/svg">
  <!-- Background gradient -->
  <defs>
    <linearGradient id="bgGradient" x1="0%" y1="0%" x2="100%" y2="100%">
      <stop offset="0%" style="stop-color:#667eea;stop-opacity:1" />
      <stop offset="100%" style="stop-color:#764ba2;stop-opacity:1" />
    </linearGradient>
    <linearGradient id="leftPokeball" x1="0%" y1="0%" x2="100%" y2="100%">
      <stop offset="0%" style="stop-color:#FF6B6B;stop-opacity:1" />
      <stop offset="100%" style="stop-color:#EE5A5A;stop-opacity:1" />
    </linearGradient>
    <linearGradient id="rightPokeball" x1="0%" y1="0%" x2="100%" y2="100%">
      <stop offset="0%" style="stop-color:#4ECDC4;stop-opacity:1" />
      <stop offset="100%" style="stop-color:#44B3AA;stop-opacity:1" />
    </linearGradient>
    <radialGradient id="glow">
      <stop offset="0%" style="stop-color:#ffffff;stop-opacity:0.8" />
      <stop offset="100%" style="stop-color:#ffffff;stop-opacity:0" />
    </radialGradient>
  </defs>
  
  <!-- Rounded background -->
  <rect width="512" height="512" rx="115" fill="url(#bgGradient)"/>
  
  <!-- Glow effect in center -->
  <circle cx="256" cy="256" r="120" fill="url(#glow)" opacity="0.3"/>
  
  <!-- Left Pokéball half -->
  <g transform="translate(150, 256)">
    <!-- Top half (red) -->
    <path d="M -70 0 A 70 70 0 0 1 0 -70 L 0 0 Z" fill="url(#leftPokeball)"/>
    <!-- Bottom half (white) -->
    <path d="M -70 0 A 70 70 0 0 0 0 70 L 0 0 Z" fill="#FFFFFF"/>
    <!-- Center band -->
    <rect x="-70" y="-15" width="70" height="30" fill="#2C3E50"/>
    <!-- Center circle -->
    <circle cx="0" cy="0" r="25" fill="#FFFFFF" stroke="#2C3E50" stroke-width="6"/>
    <circle cx="0" cy="0" r="12" fill="#2C3E50"/>
  </g>
  
  <!-- Right Pokéball half -->
  <g transform="translate(362, 256)">
    <!-- Top half (cyan) -->
    <path d="M 0 -70 A 70 70 0 0 1 70 0 L 0 0 Z" fill="url(#rightPokeball)"/>
    <!-- Bottom half (white) -->
    <path d="M 0 70 A 70 70 0 0 0 70 0 L 0 0 Z" fill="#FFFFFF"/>
    <!-- Center band -->
    <rect x="0" y="-15" width="70" height="30" fill="#2C3E50"/>
    <!-- Center circle -->
    <circle cx="0" cy="0" r="25" fill="#FFFFFF" stroke="#2C3E50" stroke-width="6"/>
    <circle cx="0" cy="0" r="12" fill="#2C3E50"/>
  </g>
  
  <!-- Fusion energy effect in center -->
  <g transform="translate(256, 256)">
    <!-- Lightning bolts -->
    <path d="M -15 -40 L -5 -10 L -20 -10 L -10 20 L 5 -5 L 15 -5 L 0 -40 Z" fill="#FFD700" opacity="0.9"/>
    <path d="M 10 -35 L 20 -5 L 10 -5 L 20 25 L 30 0 L 25 0 L 30 -35 Z" fill="#FFA500" opacity="0.8"/>
    <path d="M -25 -30 L -15 0 L -25 0 L -15 30 L -5 5 L -10 5 L -5 -30 Z" fill="#FFA500" opacity="0.8"/>
    
    <!-- Sparkles -->
    <circle cx="-35" cy="-20" r="4" fill="#FFFFFF" opacity="0.9"/>
    <circle cx="40" cy="-25" r="3" fill="#FFFFFF" opacity="0.9"/>
    <circle cx="-30" cy="25" r="3" fill="#FFFFFF" opacity="0.8"/>
    <circle cx="35" cy="30" r="4" fill="#FFFFFF" opacity="0.8"/>
    <circle cx="0" cy="-50" r="3" fill="#FFFFFF" opacity="0.9"/>
    <circle cx="0" cy="45" r="3" fill="#FFFFFF" opacity="0.8"/>
  </g>
  
  <!-- Plus symbol at top -->
  <g transform="translate(256, 120)">
    <rect x="-5" y="-20" width="10" height="40" fill="#FFFFFF" opacity="0.9" rx="3"/>
    <rect x="-20" y="-5" width="40" height="10" fill="#FFFFFF" opacity="0.9" rx="3"/>
  </g>
  
  <!-- Equals symbol at bottom -->
  <g transform="translate(256, 392)">
    <rect x="-25" y="-12" width="50" height="8" fill="#FFFFFF" opacity="0.9" rx="2"/>
    <rect x="-25" y="4" width="50" height="8" fill="#FFFFFF" opacity="0.9" rx="2"/>
  </g>
</svg>